# xmcd CD database file
#
# Track frame offsets:
#	150
#	20185
#	40182
#	54820
#	69525
#	86700
#	100950
#	121150
#	140925
#	168245
#
# Disc length: 2447 seconds
#
# Revision: 0
# Processed by: cddbd v1.5.1PL0 Copyright (c) Steve Scherf et al.
# Submitted via: CDex 1.51
#
DISCID=88098d0a
DTITLE=Jiaen - Gain
DYEAR=1900
DGENRE=Rock
TTITLE0=可南
TTITLE1=Underground Fish
TTITLE2=Body Communication
TTITLE3=シーラカンス
TTITLE4=El Sol
TTITLE5=World's End Party
TTITLE6=路上
TTITLE7=Sweet Little Cherry Pies
TTITLE8=Glass Object
TTITLE9=Rodeo Drive
EXTD=
EXTT0=
EXTT1=
EXTT2=
EXTT3=
EXTT4=
EXTT5=
EXTT6=
EXTT7=
EXTT8=
EXTT9=
PLAYORDER=
